<?xml version="1.0" standalone="no"?>
<!DOCTYPE svg PUBLIC "-//W3C//DTD SVG 20010904//EN"
 "http://www.w3.org/TR/2001/REC-SVG-20010904/DTD/svg10.dtd">
<svg version="1.0" xmlns="http://www.w3.org/2000/svg"
 width="52.000000pt" height="72.000000pt" viewBox="0 0 52.000000 72.000000"
 preserveAspectRatio="xMidYMid meet">

<g transform="translate(0.000000,72.000000) scale(0.100000,-0.100000)"
fill="#000000" stroke="none">
<path d="M0 360 l0 -360 260 0 260 0 0 360 0 360 -260 0 -260 0 0 -360z m328
298 c21 -21 13 -69 -28 -186 -22 -62 -40 -120 -40 -129 0 -9 17 10 39 43 21
32 52 72 68 87 35 32 80 40 96 16 11 -18 13 -14 -86 -202 -37 -69 -47 -98 -47
-135 0 -56 14 -76 42 -61 30 16 33 3 3 -17 -21 -14 -30 -15 -52 -5 -24 11 -25
15 -21 74 4 61 18 100 89 254 18 40 30 76 26 79 -17 18 -130 -124 -149 -187
-6 -22 -16 -38 -22 -36 -20 7 -10 129 20 244 22 87 26 115 17 124 -42 42 -131
-189 -120 -312 5 -62 -2 -83 -25 -74 -11 4 -20 29 -27 73 -21 123 -32 172 -42
177 -5 4 -9 13 -9 21 0 11 4 12 18 5 18 -10 34 -35 53 -86 10 -29 11 -27 33
55 25 96 38 123 74 163 27 29 69 36 90 15z"/>
</g>
</svg>
